<svg width="69" height="65" viewBox="0 0 69 65" fill="none" xmlns="http://www.w3.org/2000/svg">
<g clip-path="url(#clip0_40_299)">
<path d="M15.0938 18.2812H0V65H15.0938V18.2812Z" fill="#FFDC26"/>
<path d="M51.7565 18.2812C43.125 18.2812 40.7316 20.9463 38.8125 24.375V18.2812H23.7188V65H38.8125V38.5938C38.8125 34.5312 38.8125 30.4688 46.3594 30.4688C53.9062 30.4688 53.9062 34.5312 53.9062 38.5938V65H69V38.5938C69 26.4062 66.8438 18.2812 51.7565 18.2812Z" fill="#FFDC26"/>
<path d="M7.54688 14.2188C11.7149 14.2188 15.0938 11.0358 15.0938 7.10938C15.0938 3.18298 11.7149 0 7.54688 0C3.37885 0 0 3.18298 0 7.10938C0 11.0358 3.37885 14.2188 7.54688 14.2188Z" fill="#FFDC26"/>
</g>
<defs>
<clipPath id="clip0_40_299">
<rect width="69" height="65" fill="white"/>
</clipPath>
</defs>
</svg>
